<svg xmlns="http://www.w3.org/2000/svg" viewBox="0 0 128 128" role="img" aria-label="Tailwind CSS">
  <rect width="128" height="128" rx="16" fill="#0B1120"/>
  <path fill="#38BDF8" d="M64 36c-10.7 0-17.3 5.3-20 16 4-5.3 8.7-7.3 14-6 3 0.6 5.2 2.4 7.6 4.4 3.9 3.3 8.4 7.1 18.4 7.1 10.7 0 17.3-5.3 20-16-4 5.3-8.7 7.3-14 6-3-0.6-5.2-2.4-7.6-4.4C78.5 39.8 74 36 64 36zm-20 28c-10.7 0-17.3 5.3-20 16 4-5.3 8.7-7.3 14-6 3 0.6 5.2 2.4 7.6 4.4 3.9 3.3 8.4 7.1 18.4 7.1 10.7 0 17.3-5.3 20-16-4 5.3-8.7 7.3-14 6-3-0.6-5.2-2.4-7.6-4.4C58.5 67.8 54 64 44 64z"/>
</svg>
